<?xml version="1.0" encoding="UTF-8"?>
<svg version="1.1" viewBox="0 0 800 800" width="200" height="200" xmlns="http://www.w3.org/2000/svg">
<path transform="translate(280,99)" d="m0 0h240l26 3 15 4 16 6 16 8 17 12 15 13 10 11 12 17 11 21 7 21 3 14 2 17 1 57 13 10 18 18 11 14 7 10 9 15 11 23 7 21 5 23 2 14 1 13v17l-2 18-4 20-4 11-3 4 9 7 8 9 5 12 1 4v14l-3 11-6 10-6 7-10 6-10 3-7 1h-27v29l-2 11-5 12-8 11-9 8-14 7-12 3h-16l-15-4-12-7-11-11-8-14-3-10v-35h-360v30l-4 16-8 13-7 8-11 7-8 4-12 3h-16l-15-4-10-6-10-9-8-11-5-12-1-4v-35h-30l-12-3-9-5-9-8-6-10-3-8v-21l4-10 6-9 8-7 4-3-5-10-4-16-3-19v-34l3-23 5-20 6-18 13-27 10-16 10-13 12-14 8-8 8-7 9-7 1-63 3-19 5-17 8-18 6-11 11-16 11-12 10-10 19-14 21-11 21-7 14-3zm12 54-17 3-17 6-17 9-13 10-16 16-9 13-9 17-5 15-4 20-1 10 10-2 18-5 16-3 22-2h300l22 2 25 5 17 5h2v-10l-3-18-6-18-9-17-12-16-11-11-15-11-17-9-21-7-12-2zm-130 206-16 4-12 6-11 8-8 8-8 12-5 12-3 14v16l4 16 8 16 8 10 10 9 11 6 9 4 15 3h15l16-4 16-8 10-8 9-10 6-10 5-14 2-9v-18l-4-16-7-14-7-9-9-9-11-7-11-5-14-3zm458 0-15 4-14 7-13 11-9 11-7 15-3 12-1 7v10l3 16 6 14 7 10 8 9 15 10 15 6 11 2h16l15-4 9-4 10-6 10-9 7-8 6-10 4-11 2-10v-21l-3-12-8-16-6-8-11-11-14-8-11-4-10-2zm-340 107-6 3-4 5v8l4 6 7 7 14 10 10 6 19 8 15 5 17 4 20 3 13 1h25l26-3 22-5 21-7 16-8 12-7 10-8 7-6 4-6v-6l-4-6-4-3-5-1-6 3-10 9-14 9-15 7-18 6-24 5-20 2h-25l-25-3-21-5-16-6-16-8-11-8-12-10z" fill="#313131"/>
<path transform="translate(144,377)" d="m0 0h19l9 4 6 4 7 8 4 9 1 5v13l-3 10-7 9-7 6-10 4-4 1h-12l-10-3-10-7-6-8-4-10v-17l4-10 4-6 9-8z" fill="#313131"/>
<path transform="translate(604,377)" d="m0 0h18l10 4 10 9 5 9 2 6v16l-4 11-7 9-7 5-12 4h-12l-10-3-8-5-7-7-5-11-1-3v-15l4-11 6-8 6-5 8-4z" fill="#313131"/>
</svg>
